<?xml version="1.0" encoding="UTF-8" standalone="no"?>
<!-- Created with Inkscape (http://www.inkscape.org/) -->

<svg
   version="1.1"
   id="svg1"
   width="340"
   height="345.33334"
   viewBox="0 0 340 345.33334"
   sodipodi:docname="synergize-logo.svg"
   inkscape:version="1.4 (e7c3feb100, 2024-10-09)"
   xmlns:inkscape="http://www.inkscape.org/namespaces/inkscape"
   xmlns:sodipodi="http://sodipodi.sourceforge.net/DTD/sodipodi-0.dtd"
   xmlns="http://www.w3.org/2000/svg"
   xmlns:svg="http://www.w3.org/2000/svg">
  <defs
     id="defs1" />
  <sodipodi:namedview
     id="namedview1"
     pagecolor="#ffffff"
     bordercolor="#000000"
     borderopacity="0.25"
     inkscape:showpageshadow="2"
     inkscape:pageopacity="0.0"
     inkscape:pagecheckerboard="0"
     inkscape:deskcolor="#d1d1d1"
     inkscape:zoom="1.3842947"
     inkscape:cx="161.81525"
     inkscape:cy="202.26907"
     inkscape:window-width="1644"
     inkscape:window-height="988"
     inkscape:window-x="0"
     inkscape:window-y="0"
     inkscape:window-maximized="1"
     inkscape:current-layer="g2" />
  <g
     inkscape:groupmode="layer"
     inkscape:label="Image"
     id="g1">
    <g
       id="g2"
       transform="translate(-373.92071,-49.904317)"
       style="fill:#1683ab;fill-opacity:1">
      <path
         style="fill:#1683ab;fill-opacity:1"
         d="M 504.04111,372.11795 C 387.40762,304.9783 383.00806,302.35396 379.54821,297.85782 c -3.27854,-4.26052 -3.53592,-5.62911 -3.94918,-21 -0.24314,-9.04335 -0.16664,-16.44245 0.17,-16.44245 0.33664,0 37.72335,21.41716 83.08158,47.59369 45.35822,26.17653 83.45218,47.62654 84.65324,47.66667 1.20105,0.0401 32.54309,-17.32703 69.64897,-38.59369 l 67.46524,-38.66667 0.0449,-20.36407 0.0448,-20.36407 -3,1.91141 c -6.58173,4.19347 -133.27181,76.81673 -134.00552,76.81673 -0.43262,0 -38.47843,-21.75 -84.54625,-48.33334 l -83.75966,-48.33333 -0.011,-35.73288 c -0.0121,-39.40884 0.20979,-40.65366 8.32098,-46.6868 6.13268,-4.56152 148.98972,-87.000242 152.87136,-88.217702 7.49335,-2.35026 13.50925,-0.9519 26.23576,6.098342 6.90852,3.827189 12.56095,7.324648 12.56095,7.772131 0,0.447483 -30,18.126715 -66.66667,39.287179 -36.66666,21.16046 -66.64617,38.84995 -66.62113,39.30998 0.054,0.99109 33.40602,19.60902 34.52164,19.27082 0.42139,-0.12775 31.03079,-17.65584 68.02089,-38.95132 l 67.25472,-38.719054 4.07861,2.50472 c 2.24323,1.37759 22.97861,13.38314 46.07861,26.678994 39.9899,23.01732 48.10766,28.49523 45.71989,30.85204 -1.91849,1.89361 -162.35841,94.86326 -163.80774,94.92119 -0.78164,0.0312 -8.40709,-4.0539 -16.94544,-9.0781 -13.29683,-7.82421 -15.19731,-9.35448 -13.24549,-10.66532 1.25332,-0.84173 30.77878,-17.92345 65.61211,-37.95937 34.83333,-20.03592 64.09196,-37.11658 65.01917,-37.95702 1.30846,-1.18601 -2.08588,-3.70824 -15.16346,-11.2675 -14.0769,-8.1369 -17.32427,-9.52301 -19.736,-8.42415 -1.58769,0.7234 -32.08689,18.18619 -67.776,38.80621 -35.68911,20.62002 -65.25388,37.49094 -65.69949,37.49094 -0.4456,0 -14.72285,-8.01338 -31.72721,-17.80751 -17.00435,-9.79413 -32.26701,-18.51524 -33.91701,-19.38024 l -3,-1.57274 v 19.91113 19.91114 l 67.50561,39.02467 c 37.12809,21.46356 68.17809,39.00712 69,38.98568 0.82192,-0.0215 38.99439,-21.7278 84.82772,-48.23634 l 83.33334,-48.19735 0.34864,53.56152 c 0.3361,51.63508 0.25042,53.76442 -2.38214,59.20257 -1.53204,3.16477 -4.90423,7.06545 -7.68198,8.88591 -2.72315,1.78469 -37.65119,22.06581 -77.61786,45.06918 -67.49415,38.84719 -73.18866,41.86139 -80,42.34541 -7.33117,0.52095 -7.34314,0.51546 -40.66666,-18.66711 z"
         id="path2" />
    </g>
  </g>
</svg>
